<?xml version="1.0" encoding="UTF-8" standalone="no"?>
<!-- Created with Inkscape (http://www.inkscape.org/) -->

<svg
   xmlns:dc="http://purl.org/dc/elements/1.1/"
   xmlns:cc="http://creativecommons.org/ns#"
   xmlns:rdf="http://www.w3.org/1999/02/22-rdf-syntax-ns#"
   xmlns:svg="http://www.w3.org/2000/svg"
   xmlns="http://www.w3.org/2000/svg"
   xmlns:sodipodi="http://sodipodi.sourceforge.net/DTD/sodipodi-0.dtd"
   xmlns:inkscape="http://www.inkscape.org/namespaces/inkscape"
   id="svg3538"
   version="1.1"
   inkscape:version="0.91 r13725"
   width="4722.5029"
   height="1152.4808"
   viewBox="0 0 4722.5029 1152.4808"
   sodipodi:docname="logo_colors_huge3.svg">
  <metadata
     id="metadata3544">
    <rdf:RDF>
      <cc:Work
         rdf:about="">
        <dc:format>image/svg+xml</dc:format>
        <dc:type
           rdf:resource="http://purl.org/dc/dcmitype/StillImage" />
        <dc:title></dc:title>
      </cc:Work>
    </rdf:RDF>
  </metadata>
  <defs
     id="defs3542" />
  <sodipodi:namedview
     pagecolor="#ffffff"
     bordercolor="#666666"
     borderopacity="1"
     objecttolerance="10"
     gridtolerance="10"
     guidetolerance="10"
     inkscape:pageopacity="0"
     inkscape:pageshadow="2"
     inkscape:window-width="1185"
     inkscape:window-height="708"
     id="namedview3540"
     showgrid="false"
     fit-margin-top="0"
     fit-margin-left="0"
     fit-margin-right="0"
     fit-margin-bottom="0"
     inkscape:zoom="0.17848599"
     inkscape:cx="296.50496"
     inkscape:cy="-5.1351962"
     inkscape:window-x="27"
     inkscape:window-y="55"
     inkscape:window-maximized="0"
     inkscape:current-layer="g4696" />
  <g
     id="g4696"
     transform="translate(5694.8465,-3194.8096)">
    <path
       d="m -5087.9492,3707.0566 c 0.4332,-0.7009 2.3818,-1.2744 4.3301,-1.2744 1.9958,0 3.8567,-0.8187 4.262,-1.875 0.3958,-1.0313 1.6202,-1.875 2.721,-1.875 3.2392,0 11.9576,-6.6539 19.0506,-14.5392 9.0021,-10.0079 9.4308,-10.5656 11.9149,-15.5023 1.1993,-2.3834 2.7136,-5.1773 3.365,-6.2085 3.5284,-5.5855 9.6144,-23.2388 8.974,-26.0303 -0.2088,-0.9103 0.2025,-2.3567 0.9141,-3.2141 0.7116,-0.8574 1.6012,-4.7246 1.977,-8.5937 0.3757,-3.8691 1.1217,-9.454 1.6578,-12.4108 1.876,-10.3479 -1.3369,-42.9436 -4.719,-47.8761 -0.4714,-0.6875 -1.6331,-3.7813 -2.5817,-6.875 -0.9485,-3.0938 -3.0185,-7.7232 -4.6001,-10.2877 -1.5816,-2.5644 -2.8756,-5.2363 -2.8756,-5.9375 0,-0.7011 -0.4219,-1.3012 -0.9375,-1.3334 -0.5156,-0.032 -2.8245,-2.704 -5.1309,-5.9375 -2.3063,-3.2334 -6.4727,-7.2852 -9.2587,-9.0039 -2.7859,-1.7188 -7.0074,-4.4156 -9.3812,-5.9929 -2.3737,-1.5773 -5.2385,-2.7163 -6.3663,-2.5312 -1.1277,0.1852 -2.8139,-0.1417 -3.7471,-0.7263 -2.3212,-1.4543 -20.1783,-1.9954 -20.1783,-0.6115 0,0.6115 -1.3725,1.1119 -3.05,1.1119 -4.131,0 -23.1276,9.9916 -28.8618,15.1804 -8.1243,7.3515 -15.5351,17.7819 -21.187,29.8196 -1.1298,2.4062 -2.8635,5.9674 -3.8527,7.9138 -0.9892,1.9463 -1.7985,4.5244 -1.7985,5.7291 0,1.2047 -0.3945,2.5849 -0.8767,3.0671 -0.4822,0.4822 -0.9924,3.1272 -1.1337,5.8777 -0.1414,2.7505 -0.8744,5.7448 -1.629,6.654 -3.5303,4.2538 -1.3061,55.5943 2.6025,60.0708 0.5703,0.6531 1.0369,2.4889 1.0369,4.0794 0,1.5906 0.5152,3.8687 1.1449,5.0625 1.4061,2.6656 4.4963,9.7817 6.2434,14.3769 0.7149,1.8803 1.8763,3.4187 2.5808,3.4187 0.7045,0 1.2809,0.5561 1.2809,1.2357 0,2.0417 13.8107,17.5143 15.633,17.5143 0.4709,0 2.4279,1.1192 4.3491,2.4872 1.9211,1.368 5.6642,3.2421 8.3179,4.1646 5.8331,2.0279 28.6826,2.6967 29.8099,0.8726 z m -139.9736,17.3308 c 7.1442,-3.4012 19.3061,-13.1698 19.4145,-15.5939 0.028,-0.625 1.7154,-3.0838 3.75,-5.4641 2.0346,-2.3803 3.6992,-4.9833 3.6992,-5.7844 0,-0.8012 0.8438,-2.157 1.875,-3.0128 1.0313,-0.8559 1.875,-2.8603 1.875,-4.4543 0,-1.594 0.5625,-3.2458 1.25,-3.6707 0.6875,-0.4249 1.25,-2.4345 1.25,-4.4658 0,-2.0312 0.5193,-4.6699 1.154,-5.8637 2.1134,-3.9753 4.2357,-27.0048 3.2029,-34.7569 -0.5432,-4.0775 -1.0739,-9.5073 -1.1792,-12.0663 -0.1053,-2.559 -0.5821,-5.0434 -1.0596,-5.5209 -0.4774,-0.4774 -0.8716,-2.3212 -0.8758,-4.0973 0,-1.776 -0.7256,-4.6354 -1.603,-6.3541 -0.8774,-1.7188 -2.3702,-5.5156 -3.3174,-8.4375 -0.9471,-2.9219 -2.0572,-5.3125 -2.4668,-5.3125 -0.4097,0 -1.5311,-1.7763 -2.4921,-3.9473 -1.9976,-4.513 -15.7659,-18.5527 -18.194,-18.5527 -0.8871,0 -2.2376,-0.7527 -3.0011,-1.6727 -2.3386,-2.8179 -11.5903,-4.9571 -20.803,-4.8102 -7.339,0.117 -10.1779,0.8474 -17.5,4.5027 -8.687,4.3366 -19.3649,12.7964 -19.3649,15.3424 0,0.7324 -0.8716,2.055 -1.9369,2.9391 -3.5171,2.919 -10.4552,20.591 -13.2302,33.6987 -2.0256,9.5682 -2.2214,34.45 -0.3211,40.8233 0.8524,2.8591 1.2406,5.5076 0.8626,5.8856 -0.378,0.3781 0.2371,2.9978 1.367,5.8216 1.1299,2.8239 1.769,5.596 1.4202,6.1602 -0.3487,0.5643 0.2035,1.7211 1.2272,2.5707 1.0236,0.8496 1.8612,2.2996 1.8612,3.2223 0,6.5808 18.6395,30.5163 23.7643,30.5163 0.6796,0 1.2357,0.5518 1.2357,1.2262 0,0.6744 1.5469,1.5957 3.4375,2.0473 1.8906,0.4517 4.0071,1.2642 4.7034,1.8057 1.6584,1.2898 9.7969,1.9323 16.8591,1.3309 3.0938,-0.2634 9.0051,-2.0881 13.1363,-4.0549 z m 332.3324,4.0245 c 0.9,-0.7469 1.9608,-1.0336 2.3573,-0.6371 1.1369,1.1369 23.424,-9.0906 23.424,-10.7492 0,-0.5272 1.852,-1.8374 4.1154,-2.9115 2.2635,-1.0741 5.889,-3.81 8.0567,-6.0799 2.1676,-2.2699 4.675,-4.7496 5.572,-5.5105 4.1919,-3.5559 16.6724,-20.8466 20.2045,-27.9915 1.1896,-2.4063 3.2216,-6.0625 4.5158,-8.125 1.2941,-2.0625 2.394,-5.0156 2.4442,-6.5625 0.05,-1.5469 0.6539,-2.8125 1.3414,-2.8125 0.6875,0 1.25,-1.3731 1.25,-3.0512 0,-1.6782 0.5192,-3.3722 1.1538,-3.7644 0.6346,-0.3922 1.5499,-2.5163 2.034,-4.7202 0.484,-2.2039 1.2957,-4.8694 1.8036,-5.9232 2.2369,-4.641 4.1289,-10.9572 4.3184,-14.416 0.113,-2.0625 0.9102,-5.4208 1.7716,-7.4629 0.8614,-2.0421 1.2812,-4.8026 0.9329,-6.1345 -0.3483,-1.3318 0.1787,-4.3648 1.1711,-6.74 2.2357,-5.3508 2.8786,-40.9639 0.8093,-44.8305 -0.7385,-1.3798 -1.3418,-5.2815 -1.3407,-8.6705 0,-4.8695 -2.9971,-21.1616 -3.8949,-21.1616 -0.1102,0 -0.3683,-0.8438 -0.5736,-1.875 -0.7308,-3.6707 -4.5411,-14.1139 -7.0068,-19.2039 -9.5755,-19.7675 -25.6728,-35.947 -41.8037,-42.0174 -4.125,-1.5523 -8.4767,-3.3188 -9.6705,-3.9255 -1.1938,-0.6068 -7.744,-1.1032 -14.5559,-1.1032 -26.806,0 -50.9384,13.3208 -72.4652,40 -3.7846,4.6904 -12.3316,18.5442 -13.8813,22.5 -0.9426,2.4062 -2.3243,5.2187 -3.0705,6.25 -2.9659,4.0993 -4.4816,7.6023 -4.4816,10.358 0,1.5906 -0.4945,3.4264 -1.099,4.0795 -1.5951,1.7236 -4.4459,10.8516 -4.1078,13.1531 0.1588,1.0811 -0.57,3.6123 -1.6195,5.625 -1.0496,2.0127 -1.9118,5.4509 -1.916,7.6405 0,2.1896 -0.5643,5.445 -1.2445,7.2342 -1.652,4.345 -2.4228,57.6077 -0.914,63.1557 0.6538,2.404 1.3259,5.4978 1.4936,6.875 0.4474,3.6743 3.2154,13.417 4.5242,15.9245 0.6232,1.1938 1.133,2.9355 1.133,3.8705 0,0.9349 0.7898,3.3332 1.7551,5.3294 0.9653,1.9963 2.9668,6.1608 4.4477,9.2546 1.4809,3.0937 4.0409,7.875 5.689,10.625 3.3737,5.6294 20.4039,24.375 22.1444,24.375 0.6218,0 2.9212,1.3163 5.1097,2.9252 2.1885,1.6089 5.9479,3.6344 8.3541,4.5012 2.4063,0.8667 5.5,2.0405 6.875,2.6083 4.2699,1.7634 5.2382,1.8455 19.4104,1.6467 7.7943,-0.1094 14.5088,-0.7845 15.4333,-1.5517 z m -431.3517,37.4952 c 3.1599,-1.5297 7.9631,-4.9991 10.6738,-7.7098 5.5559,-5.556 12.7092,-18.5845 12.7092,-23.1479 0,-1.6595 0.504,-3.0172 1.12,-3.0172 1.5147,0 1.5813,-32.0842 0.077,-37.1875 -0.6585,-2.2344 -1.7943,-6.1719 -2.524,-8.75 -4.3362,-15.3206 -17.5742,-33.6178 -27.7276,-38.3244 -10.6566,-4.9399 -25.9928,-7.4456 -27.7885,-4.5402 -0.4426,0.7161 -1.6394,1.3021 -2.6595,1.3021 -5.2338,0 -22.9976,17.8905 -22.9976,23.1615 0,1.0112 -0.5625,1.8385 -1.25,1.8385 -0.6875,0 -1.25,1.575 -1.25,3.5 0,1.925 -0.6648,4.1647 -1.4773,4.9772 -0.976,0.9761 -1.529,7.2815 -1.63,18.5865 -0.1397,15.6438 0.1519,18.045 3.4044,28.0347 5.4941,16.8744 17.2537,32.925 27.7836,37.9218 2.3722,1.1257 4.6362,2.5696 5.0312,3.2086 0.395,0.6391 1.5391,0.847 2.5426,0.4619 1.0034,-0.3851 2.1367,0.1137 2.5183,1.1083 1.1238,2.9285 16.3654,2.0027 23.4442,-1.4241 z m -83.637,67.1483 c 15.1213,-4.3405 28.4127,-21.8672 30.162,-39.7732 1.0004,-10.2399 0.7113,-27.4714 -0.4988,-29.7324 -0.7662,-1.4318 -1.3932,-3.9776 -1.3932,-5.6574 0,-1.6798 -0.822,-3.7363 -1.8266,-4.57 -1.0046,-0.8338 -2.2009,-2.7308 -2.6584,-4.2156 -0.8391,-2.7234 -2.907,-5.372 -7.2653,-9.3057 -1.3065,-1.1792 -3.3314,-3.0438 -4.4998,-4.1437 -1.1685,-1.0999 -3.9804,-2.6468 -6.2487,-3.4375 -4.5807,-1.5968 -20.0012,-1.9768 -20.0012,-0.4929 0,0.5197 -1.7339,1.7124 -3.853,2.6504 -4.8386,2.1418 -16.147,13.1587 -16.147,15.7308 0,1.0582 -0.5625,1.924 -1.25,1.924 -0.6875,0 -1.25,1.0561 -1.25,2.3469 0,1.2908 -0.8437,3.0472 -1.875,3.9031 -1.0312,0.8558 -1.875,3.3435 -1.875,5.528 0,2.1846 -0.617,4.589 -1.3712,5.3431 -0.8977,0.8977 -1.158,5.624 -0.7541,13.6875 0.6354,12.6819 1.8642,19.5448 4.6672,26.0664 0.8865,2.0625 1.5469,4.0941 1.4675,4.5148 -0.079,0.4206 3.0642,4.2365 6.9857,8.4798 5.0927,5.5107 8.9157,8.3833 13.3799,10.0538 7.6275,2.8541 9.5386,2.9846 16.105,1.0998 z m 316.841,509.4501 c -0.5959,-4.2041 -0.1397,-31.5919 0.6324,-37.9734 0.2912,-2.4062 0.9472,-9.4375 1.4579,-15.625 0.5106,-6.1875 1.4697,-11.9367 2.1313,-12.7759 0.6615,-0.8392 1.2379,-3.6517 1.2807,-6.25 0.043,-2.5983 0.4853,-5.2866 0.983,-5.9741 0.4978,-0.6875 1.3227,-3.2003 1.8333,-5.584 0.5106,-2.3836 1.3536,-5.1961 1.8735,-6.25 1.0263,-2.0804 3.3508,-7.5818 5.299,-12.541 0.6752,-1.7187 1.698,-3.9687 2.2728,-5 3.979,-7.1381 7.4151,-14.4923 7.4151,-15.8704 0,-0.8963 0.5361,-1.6296 1.1914,-1.6296 0.6552,0 2.1837,-2.1094 3.3966,-4.6875 1.2128,-2.5781 3.208,-5.7779 4.4336,-7.1107 1.2256,-1.3328 2.2284,-3.1609 2.2284,-4.0625 0,-0.9016 0.4878,-1.6393 1.0839,-1.6393 0.5961,0 2.5813,-2.2627 4.4115,-5.0283 1.8301,-2.7655 4.2955,-6.2415 5.4786,-7.7244 4.1347,-5.1826 37.2305,-38.0449 46.3758,-46.0488 5.0736,-4.4403 10.7884,-9.4796 12.6995,-11.1984 1.9112,-1.7187 6.1571,-5.375 9.4356,-8.125 3.2784,-2.75 7.4322,-6.4062 9.2307,-8.125 1.7985,-1.7187 6.3389,-5.6414 10.0897,-8.717 3.7508,-3.0756 8.5481,-7.2944 10.6606,-9.375 2.1125,-2.0807 9.0332,-8.8207 15.3794,-14.978 6.3462,-6.1572 13.0553,-13.1486 14.9091,-15.5364 1.8538,-2.3878 4.2144,-5.2277 5.2456,-6.3109 1.0313,-1.0832 4.5514,-5.3418 7.8225,-9.4636 3.2711,-4.1218 6.5054,-8.1735 7.1875,-9.0039 0.682,-0.8303 1.24,-2.0959 1.24,-2.8125 0,-0.7165 0.4705,-1.3027 1.0456,-1.3027 0.5751,0 2.617,-3.1058 4.5375,-6.9017 1.9206,-3.7959 3.9586,-7.1901 4.529,-7.5426 0.5703,-0.3525 2.0062,-3.7155 3.1907,-7.4733 1.1846,-3.7578 2.6135,-6.8324 3.1755,-6.8324 0.5619,0 1.0217,-1.3731 1.0217,-3.0512 0,-1.6782 0.5625,-3.3989 1.25,-3.8238 0.6875,-0.4249 1.25,-2.0381 1.25,-3.5849 0,-1.5468 0.8107,-3.9042 1.8015,-5.2387 0.991,-1.3348 1.4906,-3.699 1.1104,-5.2552 -0.3801,-1.5558 -0.1019,-3.5386 0.6181,-4.4062 0.7201,-0.8676 1.7021,-4.6572 2.1821,-8.4213 0.4801,-3.764 1.4006,-7.8669 2.0455,-9.1174 1.5698,-3.0438 2.1695,-55.8272 0.6683,-58.8144 -0.6463,-1.286 -1.4204,-4.661 -1.7202,-7.5 -0.2999,-2.8391 -1.65,-8.6545 -3.0004,-12.9233 -1.3504,-4.2687 -2.4553,-8.3935 -2.4553,-9.1661 0,-2.5602 -9.7574,-21.1545 -13.9233,-26.533 -6.4627,-8.3439 -17.077,-19.6652 -22.7518,-24.2673 -2.86,-2.3193 -6.3642,-5.1856 -7.7872,-6.3696 -1.423,-1.1839 -5.0793,-3.4489 -8.125,-5.0332 -3.0457,-1.5843 -7.2252,-3.9338 -9.2877,-5.2211 -2.0625,-1.2873 -4.6701,-2.3817 -5.7946,-2.432 -1.1245,-0.05 -3.6558,-0.9316 -5.625,-1.9586 -1.9692,-1.027 -4.5316,-1.8708 -5.6941,-1.875 -1.1626,0 -2.4614,-0.5702 -2.8863,-1.2577 -0.4249,-0.6875 -2.1124,-1.25 -3.75,-1.25 -1.6376,0 -3.3251,-0.5625 -3.75,-1.25 -0.4249,-0.6875 -2.8769,-1.25 -5.4488,-1.25 -2.5719,0 -5.2736,-0.5975 -6.0039,-1.3277 -0.7302,-0.7302 -3.7958,-1.508 -6.8125,-1.7283 -3.0166,-0.2204 -8.8598,-1.0243 -12.9848,-1.7865 -9.507,-1.7567 -103.1747,-2.813 -105.2111,-1.1866 -0.8037,0.6418 -5.1155,1.3719 -9.5819,1.6225 -4.4664,0.2505 -9.246,1.0578 -10.6214,1.7939 -1.3754,0.736 -4.3477,1.1232 -6.6052,0.8604 -2.2575,-0.2629 -6.4254,0.2205 -9.2619,1.0742 -2.8365,0.8537 -7.0835,1.4259 -9.4379,1.2716 -2.3543,-0.1543 -5.3764,0.2909 -6.7157,0.9894 -1.3393,0.6985 -4.433,1.3986 -6.875,1.5557 -2.4419,0.1571 -6.6899,0.8818 -9.4399,1.6105 -2.75,0.7286 -8.375,1.9806 -12.5,2.7821 -4.125,0.8014 -8.7921,1.966 -10.3713,2.588 -1.5792,0.6219 -4.4992,1.1308 -6.4887,1.1308 -1.9896,0 -3.9651,0.5625 -4.39,1.25 -0.4249,0.6875 -2.4345,1.25 -4.4657,1.25 -2.0313,0 -4.67,0.5077 -5.8638,1.1282 -2.372,1.2328 -12.5631,4.3971 -14.6304,4.5425 -0.7096,0.05 -2.7295,0.7084 -4.4889,1.4633 -1.7593,0.7549 -5.6968,2.0883 -8.75,2.9631 -3.0531,0.8748 -6.2297,2.103 -7.0589,2.7293 -0.8293,0.6264 -2.0312,0.8153 -2.6709,0.42 -0.6397,-0.3954 -1.8582,0.1187 -2.7078,1.1423 -0.8496,1.0237 -2.6085,1.8613 -3.9086,1.8613 -2.3752,0 -3.3124,0.3709 -10.7365,4.2489 -2.2174,1.1582 -4.4674,2.1539 -5,2.2126 -1.2969,0.143 -4.1692,1.0267 -7.2185,2.221 -1.375,0.5385 -2.8628,0.9146 -3.3063,0.8358 -0.4434,-0.079 -1.8497,0.7484 -3.125,1.8383 -1.2753,1.0899 -4.2874,2.7536 -6.6937,3.6971 -5.4569,2.1396 -25.4043,12.4028 -26.25,13.506 -0.3437,0.4484 -3.4348,2.2215 -6.869,3.9403 -8.5058,4.257 -19.381,11.3716 -19.381,12.6792 0,0.5889 -0.7183,1.0708 -1.5961,1.0708 -1.336,0 -9.5724,5.5859 -17.1539,11.6336 -1.0312,0.8227 -4.6875,3.7274 -8.125,6.455 -7.2562,5.7577 -39.375,37.946 -39.375,39.4602 0,0.5624 -0.7487,1.7713 -1.6638,2.6865 -2.2229,2.2228 -14.5862,19.5831 -14.5862,20.4815 0,0.3893 -1.6875,3.1604 -3.75,6.1582 -2.0625,2.9977 -3.75,6.6147 -3.75,8.0377 0,1.423 -0.5716,2.5873 -1.2702,2.5873 -1.1237,0 -3.2821,4.0746 -6.2905,11.875 -0.5303,1.375 -2.1284,5.0447 -3.5515,8.155 -1.423,3.1102 -2.9502,7.4696 -3.3938,9.6875 -0.4436,2.2179 -1.2987,4.0325 -1.9002,4.0325 -0.6016,0 -1.0962,0.9844 -1.0992,2.1875 0,1.2031 -1.3974,6.125 -3.0987,10.9375 -1.7012,4.8125 -3.105,10.4656 -3.1195,12.5625 -0.014,2.0969 -0.6408,4.4269 -1.3918,5.1779 -0.7509,0.7509 -1.4932,4.0978 -1.6494,7.4375 -0.1562,3.3396 -0.8642,7.1971 -1.5733,8.5721 -1.8679,3.622 -2.9374,85.2182 -1.278,97.5 0.5574,4.125 1.1399,11.4375 1.2946,16.25 0.1546,4.8125 0.6952,9.4175 1.2012,10.2334 0.5061,0.8159 1.2097,5.2818 1.5637,9.9243 0.354,4.6425 1.1509,9.0521 1.7708,9.7991 0.6199,0.7469 0.9488,2.9825 0.7309,4.968 -0.218,1.9854 0.3802,5.4684 1.3293,7.7399 0.9491,2.2714 1.7256,5.7417 1.7256,7.7117 0,1.97 0.3895,3.9713 0.8655,4.4474 0.4761,0.476 1.027,2.1166 1.2243,3.6458 0.4279,3.3177 2.7093,11.6045 4.3372,15.7543 0.6416,1.6357 0.9958,3.1449 0.787,3.3536 -0.6042,0.6043 -29.1035,-20.9945 -40.8685,-30.973 -50.9188,-43.1871 -92.2323,-91.9874 -125.7004,-148.4795 -8.0297,-13.5536 -25.3844,-47.1424 -30.0322,-58.125 -7.116,-16.815 -13.4571,-33.0694 -17.7991,-45.625 -7.9795,-23.0743 -9.8713,-29.5344 -17.0214,-58.125 -2.8783,-11.5094 -6.7791,-32.2693 -8.9253,-47.5 -2.8281,-20.0697 -2.8478,-20.2408 -3.7451,-32.5 -0.4528,-6.1875 -1.0518,-13.2188 -1.3311,-15.625 -1.05,-9.0476 -0.5819,-62.5506 0.6944,-79.375 3.0127,-39.7142 9.7415,-76.2925 21.9599,-119.375 16.8507,-59.4166 52.5758,-130.9547 89.8118,-179.8448 2.8149,-3.6959 6.3098,-8.3535 7.7664,-10.3502 1.4566,-1.9967 10.0412,-12.2786 19.077,-22.8486 67.3428,-78.7771 159.4375,-139.7131 259.8683,-171.946 18.268,-5.8631 49.4218,-14.1027 61.4678,-16.2572 22.1252,-3.9573 37.5633,-6.3063 49.4385,-7.5225 7.5625,-0.7745 15.1563,-1.6819 16.875,-2.0164 1.7188,-0.3346 18.875,-0.911 38.125,-1.2809 33.8795,-0.6511 60.1527,0.7154 86.25,4.4858 33.0482,4.7747 35.0326,5.1518 61.25,11.6415 49.1095,12.1563 96.8046,30.7171 140.5397,54.6918 69.977,38.3601 135.0431,95.1394 184.0649,160.6225 64.6095,86.305 103.7457,190.2036 112.2971,298.125 5.7402,72.4422 -1.6331,141.7432 -22.5423,211.875 -1.4348,4.8125 -3.0979,10.4375 -3.6956,12.5 -7.0747,24.4095 -31.4729,79.5528 -47.4632,107.2735 -15.336,26.5862 -38.2647,59.8887 -54.3729,78.9733 -48.523,57.4884 -89.7355,92.8973 -153.0471,131.4947 -14.5849,8.8916 -53.9894,28.6196 -72.6556,36.3752 -55.8161,23.1912 -123.9328,39.1776 -180.147,42.2788 0,0 -10.7751,3.8776 -14.522,0.8012 -0.9363,-0.7687 -0.51,-3.5984 -0.51,-3.5984 z"
       style="fill:#000000"
       id="path4681"
       inkscape:connector-curvature="0" />
    <path
       id="path4679"
       d="m -2887.9341,4036.3109 c -27.9045,-2.0433 -42.8325,-3.5901 -60.625,-6.2818 -122.599,-18.5474 -208.4266,-72.495 -252.0599,-158.4343 -11.4915,-22.6335 -19.9268,-49.8586 -24.4337,-78.8601 -3.6713,-23.6249 -3.9788,-73.6771 -0.5879,-95.7025 8.3387,-54.1638 29.516,-100.5903 63.0049,-138.125 46.7077,-52.3503 119.692,-88.0834 210.3266,-102.976 52.5725,-8.6384 121.3509,-9.9035 173.75,-3.1958 53.1347,6.8019 107.9561,21.4748 162.5,43.493 l 16.875,6.8121 0.3343,31.5289 0.3343,31.5289 -2.8343,-1.8507 c -7.6329,-4.9838 -27.8959,-15.8072 -45.0254,-24.05 -66.4849,-31.9932 -136.5849,-46.1165 -218.4339,-44.0087 -46.0541,1.186 -80.9503,5.3989 -115.7181,13.9702 -101.6434,25.0581 -164.5089,80.0678 -186.7421,163.4062 -10.0152,37.5404 -11.3987,82.8133 -3.6967,120.9669 23.0198,114.0336 122.9375,183.3391 279.2819,193.7167 71.2074,4.7266 177.4387,-5.2159 243.125,-22.7548 l 10.625,-2.8369 0.3211,-85.9375 0.3211,-85.9375 -115.0086,0 -115.0086,0 0,-23.75 0,-23.75 141.25,0 141.25,0 0,124.8942 0,124.8942 -19.6875,6.3157 c -59.2393,19.0036 -107.4084,28.6073 -173.4375,34.579 -19.727,1.7841 -95.5791,3.4015 -110,2.3456 z"
       style="fill:#03a79c"
       inkscape:connector-curvature="0" />
    <path
       d="m -1269.184,3986.4649 c 97.7677,-10.7568 166.5047,-45.4084 205.8185,-103.7571 25.2245,-37.4381 38.5565,-85.8652 38.5565,-140.0531 0,-142.0843 -84.6821,-226.557 -244.375,-243.7708 -51.9999,-5.6053 -117.2353,-3.081 -164.9283,6.3819 -107.4387,21.3172 -173.8177,78.1199 -196.3392,168.0139 -12.187,48.6444 -10.1239,111.7576 5.1487,157.5 31.5562,94.5134 116.2911,147.2629 252.9938,157.4946 20.6735,1.5473 82.4691,0.4628 103.125,-1.8098 z m -93.125,49.846 c -3.0938,-0.2561 -13.2188,-1.0771 -22.5,-1.8244 -61.0746,-4.9175 -121.7435,-21.3204 -165.0001,-44.611 -15.8619,-8.5405 -36.6181,-22.5764 -50.137,-33.9041 -35.9454,-30.1192 -64.2385,-73.0421 -77.9381,-118.2385 -15.1011,-49.8202 -17.2533,-114.5375 -5.5654,-167.369 14.6881,-66.394 52.4754,-121.752 108.6405,-159.1575 39.5694,-26.3529 90.2854,-45.4474 145.5984,-54.8177 34.8268,-5.8998 53.4885,-7.3233 96.9017,-7.3916 42.7274,-0.067 57.4264,0.9241 91.538,6.1734 121.4398,18.6881 204.8674,74.6976 244.90145,164.4157 31.3679,70.297 31.3679,175.8407 0,246.1376 -39.47345,88.4618 -121.81465,144.566 -240.38875,163.7917 -28.8906,4.6844 -49.9214,6.3621 -85.4257,6.8147 -19.25,0.2455 -37.5313,0.2368 -40.625,-0.019 z"
       style="fill:#03a79c"
       id="path4675"
       inkscape:connector-curvature="0" />
    <path
       d="m -1853.5591,3712.6972 c 0,-1.0077 -0.88,-8.1416 -1.9556,-15.8532 -12.8126,-91.863 -70.0921,-156.0306 -162.6804,-182.2433 -30.3175,-8.5833 -56.3547,-12.2346 -95.364,-13.3735 -65.2004,-1.9035 -115.9346,7.7811 -164.375,31.3774 -41.6561,20.2915 -74.2496,49.1261 -97.1081,85.909 -15.8264,25.4671 -27.4778,57.8351 -32.8748,91.3281 l -0.7553,4.6875 277.5566,0 c 242.9897,0 277.5566,-0.2282 277.5566,-1.832 z m -275.625,322.3491 c -58.3099,-4.378 -92.6895,-10.7196 -133.75,-24.6715 -112.0129,-38.0617 -180.9486,-117.1201 -195.8379,-224.5956 -2.4662,-17.803 -2.0988,-64.5007 0.6536,-83.0625 8.581,-57.8679 33.6539,-109.582 73.2916,-151.1668 37.961,-39.826 94.9821,-71.2627 156.8927,-86.4978 57.2746,-14.0942 132.9634,-15.4857 193.125,-3.5506 89.7689,17.8087 157.5245,63.0436 195.9373,130.8114 24.5768,43.3585 37.7492,97.3823 37.7998,155.0288 l 0.013,14.6875 -303.84,0 -303.8398,0 0.8232,7.1875 c 1.6634,14.5206 7.1049,38.8291 11.9321,53.3033 21.5844,64.7195 67.361,110.3361 138.202,137.7187 33.6802,13.0187 70.4593,21.08 117.3475,25.7205 24.6509,2.4397 90.4323,2.1109 114.1248,-0.5704 63.5731,-7.1947 125.7356,-23.1997 165.5627,-42.6277 l 13.4375,-6.5549 0,29.7328 0,29.7328 -12.1875,3.7373 c -59.5942,18.2743 -106.1308,27.9352 -160.3125,33.2804 -18.2,1.7956 -94.849,3.4465 -109.375,2.3559 z"
       style="fill:#03a79c"
       id="path4671"
       inkscape:connector-curvature="0" />
    <path
       id="path4669"
       d="m -4221.0591,3742.0292 0,-283.75 26.25,0 26.25,0 0,283.75 0,283.75 -26.25,0 -26.25,0 z"
       style="fill:#03a79c"
       inkscape:connector-curvature="0" />
    <path
       id="path3552-0"
       d="m -3978.5591,3742.0292 0,-283.75 26.2359,0 26.2357,0 0.3268,49.9642 0.3266,49.9642 18.75,-11.3944 c 79.6909,-48.4284 131.8091,-71.8838 195,-87.7585 39.4464,-9.9097 63.3551,-12.6831 108.125,-12.5427 28.7371,0.09 37.306,0.5574 52.2461,2.8494 41.1088,6.3064 75.3855,18.9594 101.5039,37.4694 11.2261,7.9559 27.6246,23.9523 36.1424,35.2561 7.9735,10.5817 18.217,29.8091 22.9708,43.1171 4.3886,12.2851 9.2822,35.0559 10.8303,50.3951 0.8489,8.4108 1.3065,82.5137 1.3065,211.5625 l 0,198.6176 -26.2106,0 -26.2105,0 -0.3939,-202.8125 c -0.3571,-183.8192 -0.5912,-203.8696 -2.5002,-214.0998 -8.8964,-47.6748 -29.5074,-77.9388 -65.3098,-95.8972 -24.7953,-12.4372 -65.3252,-19.6393 -110.625,-19.6578 -98.0665,-0.04 -212.1027,42.7057 -304.644,114.1939 l -11.519,8.8984 -0.044,204.6875 -0.043,204.6875 -26.25,0 -26.25,0 z"
       style="fill:#03a79c"
       inkscape:connector-curvature="0" />
  </g>
</svg>
